<svg width="391" height="904" viewBox="0 0 391 904" fill="none" xmlns="http://www.w3.org/2000/svg">
    <g filter="url(#filter0_f_1261_10)">
        <path d="M400 826V79.3956C267.252 61.9049 62.4697 212.325 78.9347 334.261C96.199 462.116 277.028 393.729 197.791 566.138C134.401 704.065 306.184 796.849 400 826Z" fill="#FD461E"/>
        <path d="M400 826V79.3956C267.252 61.9049 62.4697 212.325 78.9347 334.261C96.199 462.116 277.028 393.729 197.791 566.138C134.401 704.065 306.184 796.849 400 826Z" fill="url(#paint0_linear_1261_10)"/>
        <path d="M400 826V79.3956C267.252 61.9049 62.4697 212.325 78.9347 334.261C96.199 462.116 277.028 393.729 197.791 566.138C134.401 704.065 306.184 796.849 400 826Z" stroke="black"/>
    </g>
    <defs>
        <filter id="filter0_f_1261_10" x="0.5" y="0.5" width="477" height="903.179" filterUnits="userSpaceOnUse" color-interpolation-filters="sRGB">
            <feFlood flood-opacity="0" result="BackgroundImageFix"/>
            <feBlend mode="normal" in="SourceGraphic" in2="BackgroundImageFix" result="shape"/>
            <feGaussianBlur stdDeviation="38.5" result="effect1_foregroundBlur_1261_10"/>
        </filter>
        <linearGradient id="paint0_linear_1261_10" x1="239" y1="78" x2="239" y2="826" gradientUnits="userSpaceOnUse">
            <stop offset="0.078125" stop-color="#FD1EA4"/>
            <stop offset="0.255208" stop-color="#9B1EFD"/>
            <stop offset="0.375" stop-color="#1E5CFD"/>
            <stop offset="0.494792" stop-color="#1EFDC7"/>
            <stop offset="0.625" stop-color="#9BFD1E"/>
            <stop offset="0.755208" stop-color="#FDF41E"/>
            <stop offset="0.880208" stop-color="#FD961E"/>
            <stop offset="1" stop-color="white" stop-opacity="0"/>
        </linearGradient>
    </defs>
</svg>
