<svg
        width="630"
        height="64"
        viewBox="0 0 630 64"
        fill="none"
        xmlns="http://www.w3.org/2000/svg"
>
    <path
            d="M26.2 9.912H12.76V19.896H24.408V27.256H12.76V43H1.56V1.912H26.2V9.912ZM44.7235 11.064H55.6035V43H44.9155V38.904C44.3182 41.6347 42.3768 43 39.0915 43H37.9395C32.2648 43 29.4275 40.3547 29.4275 35.064V11.064H40.3075V33.592C40.3075 34.5307 40.8408 35 41.9075 35H42.9955C44.1475 35 44.7235 34.36 44.7235 33.08V11.064ZM76.9395 19.064H72.9075V33.592C72.9075 34.5307 73.4408 35 74.5075 35H76.8755V43H71.4355C65.1635 43 62.0275 40.3547 62.0275 35.064V19.064H58.5075V11.064H62.0275V4.792H72.9075V11.064H76.9395V19.064ZM95.0985 11.064H105.979V43H95.2905V38.904C94.6932 41.6347 92.7518 43 89.4665 43H88.3145C82.6398 43 79.8025 40.3547 79.8025 35.064V11.064H90.6825V33.592C90.6825 34.5307 91.2158 35 92.2825 35H93.3705C94.5225 35 95.0985 34.36 95.0985 33.08V11.064ZM128.723 10.744H129.683V20.216H126.035C123.347 20.216 122.003 21.6667 122.003 24.568V43H111.123V11.064H121.811V15.992C122.152 14.3707 122.92 13.0907 124.115 12.152C125.309 11.2133 126.845 10.744 128.723 10.744ZM141.328 11.064H149.136C155.408 11.064 158.544 13.7093 158.544 19V29.88H142.224V34.104C142.224 35.0427 142.757 35.512 143.824 35.512H146.64C147.707 35.512 148.24 35 148.24 33.976V32.184H158.544V35.064C158.544 40.3547 155.408 43 149.136 43H141.328C135.056 43 131.92 40.3547 131.92 35.064V19C131.92 13.7093 135.056 11.064 141.328 11.064ZM142.224 23.992H148.24V19.96C148.24 19.0213 147.707 18.552 146.64 18.552H143.824C142.757 18.552 142.224 19.0213 142.224 19.96V23.992ZM192.714 7.864H189.322C188.255 7.864 187.722 8.33333 187.722 9.272V11.064H192.714V19.064H187.722V43H176.842V19.064H173.578V11.064H176.842V8.12C176.842 2.82933 179.978 0.183998 186.25 0.183998H192.714V7.864ZM204.391 11.064H212.519C215.761 11.064 218.087 11.7467 219.495 13.112C220.903 14.4773 221.607 16.44 221.607 19V35.064C221.607 37.624 220.903 39.5867 219.495 40.952C218.087 42.3173 215.761 43 212.519 43H204.391C201.148 43 198.823 42.3173 197.415 40.952C196.007 39.5867 195.303 37.624 195.303 35.064V19C195.303 16.44 196.007 14.4773 197.415 13.112C198.823 11.7467 201.148 11.064 204.391 11.064ZM210.919 34.04V20.024C210.919 19.0853 210.385 18.616 209.319 18.616H207.591C206.524 18.616 205.991 19.0853 205.991 20.024V34.04C205.991 34.9787 206.524 35.448 207.591 35.448H209.319C210.385 35.448 210.919 34.9787 210.919 34.04ZM244.035 10.744H244.995V20.216H241.347C238.659 20.216 237.315 21.6667 237.315 24.568V43H226.435V11.064H237.123V15.992C237.464 14.3707 238.232 13.0907 239.427 12.152C240.622 11.2133 242.158 10.744 244.035 10.744ZM292.493 11.064H293.645C299.32 11.064 302.157 13.7093 302.157 19V43H291.277V20.472C291.277 19.5333 290.744 19.064 289.677 19.064H288.589C287.437 19.064 286.861 19.704 286.861 20.984V43H275.981V20.472C275.981 19.5333 275.448 19.064 274.381 19.064H273.293C272.141 19.064 271.565 19.704 271.565 20.984V43H260.685V11.064H271.373V15.16C271.97 12.4293 273.912 11.064 277.197 11.064H278.349C282.317 11.064 284.92 12.408 286.157 15.096C286.498 13.8587 287.245 12.8773 288.397 12.152C289.549 11.4267 290.914 11.064 292.493 11.064ZM321.911 11.064H332.791V43H322.103V38.904C321.506 41.6347 319.564 43 316.279 43H315.127C309.452 43 306.615 40.3547 306.615 35.064V11.064H317.495V33.592C317.495 34.5307 318.028 35 319.095 35H320.183C321.335 35 321.911 34.36 321.911 33.08V11.064ZM351.695 34.552V31.992C351.695 31.0533 351.162 30.584 350.095 30.584H346.191C340.047 30.584 336.975 27.96 336.975 22.712V19C336.975 13.7093 340.111 11.064 346.383 11.064H352.335C358.607 11.064 361.743 13.7093 361.743 19V21.688H351.375V19.512C351.375 18.5733 350.842 18.104 349.775 18.104H349.135C348.068 18.104 347.535 18.5733 347.535 19.512V22.328C347.535 23.2667 348.068 23.736 349.135 23.736H353.039C356.324 23.736 358.671 24.4187 360.079 25.784C361.53 27.1067 362.255 29.0267 362.255 31.544V35.064C362.255 40.3547 359.119 43 352.847 43H346.575C340.303 43 337.167 40.3547 337.167 35.064V32.44H347.727V34.552C347.727 35.4907 348.26 35.96 349.327 35.96H350.095C351.162 35.96 351.695 35.4907 351.695 34.552ZM366.243 7.864V0.183998H377.507V7.864H366.243ZM377.315 43H366.435V11.064H377.315V43ZM407.459 23.416H396.963V20.472C396.963 19.5333 396.43 19.064 395.363 19.064H394.275C393.208 19.064 392.675 19.5333 392.675 20.472V33.592C392.675 34.5307 393.208 35 394.275 35H395.363C396.43 35 396.963 34.5307 396.963 33.592V30.648H407.459V35.064C407.459 40.3547 404.323 43 398.051 43H391.203C384.931 43 381.795 40.3547 381.795 35.064V19C381.795 13.7093 384.931 11.064 391.203 11.064H398.051C404.323 11.064 407.459 13.7093 407.459 19V23.416ZM423.931 7.864V0.183998H435.195V7.864H423.931ZM435.003 43H424.123V11.064H435.003V43ZM456.635 11.064H457.787C463.461 11.064 466.299 13.7093 466.299 19V43H455.419V20.472C455.419 19.5333 454.885 19.064 453.819 19.064H452.731C451.579 19.064 451.003 19.704 451.003 20.984V43H440.123V11.064H450.811V15.16C451.408 12.4293 453.349 11.064 456.635 11.064ZM485.779 0.183998H496.659V43H485.971V38.904C485.373 41.6347 483.432 43 480.147 43H478.995C473.32 43 470.483 40.3547 470.483 35.064V19C470.483 13.7093 473.32 11.064 478.995 11.064H480.147C483.091 11.064 484.968 12.216 485.779 14.52V0.183998ZM482.963 35H484.051C485.203 35 485.779 34.36 485.779 33.08V20.984C485.779 19.704 485.203 19.064 484.051 19.064H482.963C481.896 19.064 481.363 19.5333 481.363 20.472V33.592C481.363 34.5307 481.896 35 482.963 35ZM516.724 11.064H527.604V43H516.916V38.904C516.318 41.6347 514.377 43 511.092 43H509.94C504.265 43 501.428 40.3547 501.428 35.064V11.064H512.308V33.592C512.308 34.5307 512.841 35 513.908 35H514.996C516.148 35 516.724 34.36 516.724 33.08V11.064ZM546.508 34.552V31.992C546.508 31.0533 545.974 30.584 544.908 30.584H541.004C534.86 30.584 531.788 27.96 531.788 22.712V19C531.788 13.7093 534.924 11.064 541.196 11.064H547.148C553.42 11.064 556.556 13.7093 556.556 19V21.688H546.188V19.512C546.188 18.5733 545.654 18.104 544.588 18.104H543.948C542.881 18.104 542.348 18.5733 542.348 19.512V22.328C542.348 23.2667 542.881 23.736 543.948 23.736H547.852C551.137 23.736 553.484 24.4187 554.892 25.784C556.342 27.1067 557.068 29.0267 557.068 31.544V35.064C557.068 40.3547 553.932 43 547.66 43H541.388C535.116 43 531.98 40.3547 531.98 35.064V32.44H542.54V34.552C542.54 35.4907 543.073 35.96 544.14 35.96H544.908C545.974 35.96 546.508 35.4907 546.508 34.552ZM577.44 19.064H573.408V33.592C573.408 34.5307 573.941 35 575.008 35H577.376V43H571.936C565.664 43 562.528 40.3547 562.528 35.064V19.064H559.008V11.064H562.528V4.792H573.408V11.064H577.44V19.064ZM598.223 10.744H599.183V20.216H595.535C592.847 20.216 591.503 21.6667 591.503 24.568V43H580.623V11.064H591.311V15.992C591.652 14.3707 592.42 13.0907 593.615 12.152C594.809 11.2133 596.345 10.744 598.223 10.744ZM609.1 51.256H603.724V43.384H608.46C609.484 43.384 610.295 43.2133 610.892 42.872C611.489 42.5307 612.001 41.72 612.428 40.44H608.268L599.5 11.064H610.892L614.796 30.52L618.252 11.064H629.196L621.196 42.36C620.3 45.304 618.935 47.5227 617.1 49.016C615.265 50.5093 612.599 51.256 609.1 51.256Z"
            fill="black"
    />
    <path
            d="M0.335938 50.1328H2L2.10938 51.125C2.38021 50.776 2.72656 50.4948 3.14844 50.2812C3.57552 50.0677 4.09635 49.9609 4.71094 49.9609C5.32031 49.9609 5.83594 50.0833 6.25781 50.3281C6.6849 50.5729 7.01042 50.9479 7.23438 51.4531C7.36458 51.2344 7.51823 51.0339 7.69531 50.8516C7.8776 50.6693 8.08333 50.513 8.3125 50.3828C8.54688 50.2474 8.80729 50.1432 9.09375 50.0703C9.38542 49.9974 9.70833 49.9609 10.0625 49.9609C10.974 49.9609 11.6797 50.2396 12.1797 50.7969C12.6797 51.3542 12.9297 52.2057 12.9297 53.3516V59H11.0391V53.4141C11.0391 52.737 10.9089 52.237 10.6484 51.9141C10.388 51.5859 10.0208 51.4219 9.54688 51.4219C9.14062 51.4219 8.76302 51.513 8.41406 51.6953C8.0651 51.8724 7.76823 52.1406 7.52344 52.5C7.53906 52.6354 7.55208 52.7734 7.5625 52.9141C7.57292 53.0547 7.57812 53.2005 7.57812 53.3516V59H5.6875V53.4141C5.6875 52.737 5.55729 52.237 5.29688 51.9141C5.03646 51.5859 4.66927 51.4219 4.19531 51.4219C3.80469 51.4219 3.4401 51.5052 3.10156 51.6719C2.76302 51.8333 2.47135 52.0833 2.22656 52.4219V59H0.335938V50.1328ZM14.9297 56.5938C14.9297 55.6354 15.2604 54.9062 15.9219 54.4062C16.5885 53.901 17.5677 53.6484 18.8594 53.6484H19.9844V53.1641C19.9844 52.8776 19.9505 52.6276 19.8828 52.4141C19.8203 52.1953 19.7161 52.013 19.5703 51.8672C19.4297 51.7214 19.2422 51.612 19.0078 51.5391C18.7786 51.4609 18.4974 51.4219 18.1641 51.4219C17.9349 51.4219 17.7188 51.4401 17.5156 51.4766C17.3125 51.513 17.112 51.5625 16.9141 51.625C16.7161 51.6875 16.513 51.763 16.3047 51.8516C16.1016 51.9401 15.8854 52.0339 15.6562 52.1328V50.5781C15.8594 50.4792 16.0677 50.3906 16.2812 50.3125C16.4948 50.2344 16.7214 50.1693 16.9609 50.1172C17.2005 50.0599 17.4557 50.0182 17.7266 49.9922C17.9974 49.9661 18.2917 49.9531 18.6094 49.9531C19.7083 49.9531 20.526 50.2318 21.0625 50.7891C21.6042 51.3464 21.875 52.1589 21.875 53.2266V56.9688C21.875 57.1615 21.875 57.3411 21.875 57.5078C21.875 57.6745 21.8802 57.8385 21.8906 58C21.9062 58.1615 21.9297 58.3255 21.9609 58.4922C21.9922 58.6536 22.0391 58.8229 22.1016 59H20.1719C20.1198 58.8594 20.0807 58.7083 20.0547 58.5469C20.0286 58.3854 20.0104 58.2214 20 58.0547C19.724 58.3984 19.388 58.6719 18.9922 58.875C18.6016 59.0781 18.1432 59.1797 17.6172 59.1797C17.2109 59.1797 16.8411 59.1094 16.5078 58.9688C16.1797 58.8281 15.8984 58.6406 15.6641 58.4062C15.4297 58.1667 15.2474 57.8906 15.1172 57.5781C14.9922 57.2656 14.9297 56.9375 14.9297 56.5938ZM16.8438 56.3359C16.8438 56.5078 16.8698 56.6771 16.9219 56.8438C16.974 57.0052 17.0547 57.151 17.1641 57.2812C17.2786 57.4115 17.4245 57.5156 17.6016 57.5938C17.7786 57.6719 17.9922 57.7109 18.2422 57.7109C18.5599 57.7109 18.8698 57.6458 19.1719 57.5156C19.474 57.3854 19.7448 57.1875 19.9844 56.9219V54.9219H18.9297C18.5391 54.9219 18.2109 54.9557 17.9453 55.0234C17.6797 55.0911 17.4635 55.1875 17.2969 55.3125C17.1354 55.4375 17.0182 55.5885 16.9453 55.7656C16.8776 55.9375 16.8438 56.1276 16.8438 56.3359ZM27.3594 59.1797C26.8542 59.1797 26.3854 59.0859 25.9531 58.8984C25.5208 58.7057 25.1458 58.4193 24.8281 58.0391C24.5156 57.6589 24.2682 57.1875 24.0859 56.625C23.9089 56.0573 23.8203 55.3984 23.8203 54.6484C23.8203 53.9089 23.9089 53.25 24.0859 52.6719C24.2682 52.0885 24.5339 51.5964 24.8828 51.1953C25.237 50.7943 25.6771 50.4896 26.2031 50.2812C26.7292 50.0677 27.3385 49.9609 28.0312 49.9609C28.3281 49.9609 28.5938 49.987 28.8281 50.0391C29.0677 50.0859 29.2917 50.1458 29.5 50.2188L29.4766 49.4297V45.6328H31.3672V55.7734C31.3672 56.0391 31.3724 56.3229 31.3828 56.625C31.3984 56.9271 31.4167 57.224 31.4375 57.5156C31.4635 57.8073 31.4896 58.0833 31.5156 58.3438C31.5417 58.6042 31.5703 58.8229 31.6016 59H29.75C29.7188 58.8958 29.6901 58.7786 29.6641 58.6484C29.6432 58.5182 29.625 58.3828 29.6094 58.2422C29.3594 58.5234 29.0495 58.75 28.6797 58.9219C28.3151 59.0938 27.875 59.1797 27.3594 59.1797ZM27.875 57.7109C28.4896 57.7109 29.0234 57.513 29.4766 57.1172V51.6797C29.0443 51.5078 28.6094 51.4219 28.1719 51.4219C27.7917 51.4219 27.4531 51.4818 27.1562 51.6016C26.8646 51.7161 26.6172 51.901 26.4141 52.1562C26.2109 52.4115 26.0573 52.7396 25.9531 53.1406C25.849 53.5417 25.7969 54.026 25.7969 54.5938C25.7969 55.1354 25.8464 55.6042 25.9453 56C26.0495 56.3906 26.1927 56.7135 26.375 56.9688C26.5625 57.224 26.7812 57.4115 27.0312 57.5312C27.2865 57.651 27.5677 57.7109 27.875 57.7109ZM33.3672 54.5078C33.3672 53.7161 33.474 53.0339 33.6875 52.4609C33.9062 51.888 34.1953 51.4167 34.5547 51.0469C34.9193 50.6771 35.3359 50.4036 35.8047 50.2266C36.2786 50.0495 36.7708 49.9609 37.2812 49.9609C37.7604 49.9609 38.2031 50.0391 38.6094 50.1953C39.0156 50.3464 39.3646 50.5755 39.6562 50.8828C39.9531 51.1901 40.1823 51.5755 40.3438 52.0391C40.5104 52.4974 40.5938 53.0312 40.5938 53.6406C40.5938 53.9115 40.5729 54.1771 40.5312 54.4375C40.4948 54.6979 40.4323 54.9479 40.3438 55.1875H35.375C35.4375 55.724 35.5443 56.1562 35.6953 56.4844C35.8464 56.8125 36.0312 57.0677 36.25 57.25C36.4688 57.4323 36.7135 57.5547 36.9844 57.6172C37.2552 57.6797 37.5443 57.7109 37.8516 57.7109C38.263 57.7109 38.6354 57.6562 38.9688 57.5469C39.3021 57.4375 39.6328 57.2917 39.9609 57.1094V58.6094C39.5547 58.8177 39.1458 58.9635 38.7344 59.0469C38.3281 59.1354 37.9219 59.1797 37.5156 59.1797C36.875 59.1797 36.2969 59.0755 35.7812 58.8672C35.2708 58.6589 34.8359 58.3568 34.4766 57.9609C34.1224 57.5599 33.849 57.0703 33.6562 56.4922C33.4635 55.9089 33.3672 55.2474 33.3672 54.5078ZM38.7188 53.9141C38.7708 53.5391 38.7786 53.1979 38.7422 52.8906C38.7057 52.5833 38.6224 52.3203 38.4922 52.1016C38.3672 51.8828 38.1979 51.7161 37.9844 51.6016C37.7708 51.4818 37.5156 51.4219 37.2188 51.4219C36.6615 51.4219 36.2109 51.6354 35.8672 52.0625C35.5286 52.4844 35.3464 53.1016 35.3203 53.9141H38.7188ZM47.2891 45.6328H49.1797V49.4297L49.1484 50.7891C49.3984 50.5391 49.6979 50.3385 50.0469 50.1875C50.3958 50.0365 50.8125 49.9609 51.2969 49.9609C51.8073 49.9609 52.2786 50.0573 52.7109 50.25C53.1432 50.4375 53.5156 50.7188 53.8281 51.0938C54.1406 51.4688 54.3854 51.9375 54.5625 52.5C54.7396 53.0573 54.8281 53.7057 54.8281 54.4453C54.8281 55.263 54.7214 55.9688 54.5078 56.5625C54.2995 57.1562 54.0182 57.6484 53.6641 58.0391C53.3151 58.4245 52.9062 58.7109 52.4375 58.8984C51.974 59.0859 51.4896 59.1797 50.9844 59.1797C50.526 59.1797 50.1328 59.1276 49.8047 59.0234C49.4766 58.9245 49.1927 58.7786 48.9531 58.5859L48.8672 59H47.2891V45.6328ZM49.1797 57.2812C49.3984 57.4375 49.6302 57.5495 49.875 57.6172C50.125 57.6797 50.3828 57.7109 50.6484 57.7109C50.9661 57.7109 51.2604 57.6536 51.5312 57.5391C51.8021 57.4193 52.0339 57.2344 52.2266 56.9844C52.4245 56.7292 52.5781 56.401 52.6875 56C52.7969 55.599 52.8516 55.1146 52.8516 54.5469C52.8516 54.0052 52.8021 53.5391 52.7031 53.1484C52.6042 52.7526 52.4635 52.4271 52.2812 52.1719C52.1042 51.9167 51.888 51.7292 51.6328 51.6094C51.3776 51.4844 51.0911 51.4219 50.7734 51.4219C50.4766 51.4219 50.1927 51.474 49.9219 51.5781C49.651 51.6823 49.4036 51.8333 49.1797 52.0312V57.2812ZM57.1484 61.4766C57.3151 61.4714 57.4766 61.4531 57.6328 61.4219C57.7943 61.3906 57.9479 61.3255 58.0938 61.2266C58.2396 61.1276 58.375 60.9844 58.5 60.7969C58.6302 60.6146 58.7474 60.362 58.8516 60.0391L59.2266 58.7422H58.5312L55.4531 50.1328H57.4844L59.7656 57.1094H59.8828L61.6797 50.1328H63.6484L60.8047 59.6172C60.6484 60.1224 60.4844 60.5573 60.3125 60.9219C60.1406 61.2917 59.9609 61.6042 59.7734 61.8594C59.5859 62.1146 59.3906 62.3203 59.1875 62.4766C58.9844 62.6328 58.7734 62.7552 58.5547 62.8438C58.3359 62.9323 58.1094 62.9896 57.875 63.0156C57.6406 63.0469 57.3984 63.0625 57.1484 63.0625V61.4766ZM70.1328 51.5156H69.1797V50.1328H70.1797L70.375 47.4453H72.0078V50.1328H73.6484V51.5156H72.0078V56.5625C72.0078 56.7604 72.0286 56.9245 72.0703 57.0547C72.1172 57.1797 72.1823 57.2786 72.2656 57.3516C72.3542 57.4245 72.4557 57.4766 72.5703 57.5078C72.6901 57.5391 72.8255 57.5547 72.9766 57.5547C73.2005 57.5547 73.3854 57.5339 73.5312 57.4922C73.6771 57.4505 73.8047 57.4089 73.9141 57.3672V58.9141C73.737 58.9766 73.5365 59.0365 73.3125 59.0938C73.0938 59.151 72.8177 59.1797 72.4844 59.1797C72.1198 59.1797 71.7917 59.1276 71.5 59.0234C71.2135 58.9245 70.9688 58.7708 70.7656 58.5625C70.5625 58.3542 70.4062 58.0911 70.2969 57.7734C70.1875 57.4557 70.1328 57.0807 70.1328 56.6484V51.5156ZM75.0859 54.5078C75.0859 53.7161 75.1927 53.0339 75.4062 52.4609C75.625 51.888 75.9141 51.4167 76.2734 51.0469C76.638 50.6771 77.0547 50.4036 77.5234 50.2266C77.9974 50.0495 78.4896 49.9609 79 49.9609C79.4792 49.9609 79.9219 50.0391 80.3281 50.1953C80.7344 50.3464 81.0833 50.5755 81.375 50.8828C81.6719 51.1901 81.901 51.5755 82.0625 52.0391C82.2292 52.4974 82.3125 53.0312 82.3125 53.6406C82.3125 53.9115 82.2917 54.1771 82.25 54.4375C82.2135 54.6979 82.151 54.9479 82.0625 55.1875H77.0938C77.1562 55.724 77.263 56.1562 77.4141 56.4844C77.5651 56.8125 77.75 57.0677 77.9688 57.25C78.1875 57.4323 78.4323 57.5547 78.7031 57.6172C78.974 57.6797 79.263 57.7109 79.5703 57.7109C79.9818 57.7109 80.3542 57.6562 80.6875 57.5469C81.0208 57.4375 81.3516 57.2917 81.6797 57.1094V58.6094C81.2734 58.8177 80.8646 58.9635 80.4531 59.0469C80.0469 59.1354 79.6406 59.1797 79.2344 59.1797C78.5938 59.1797 78.0156 59.0755 77.5 58.8672C76.9896 58.6589 76.5547 58.3568 76.1953 57.9609C75.8411 57.5599 75.5677 57.0703 75.375 56.4922C75.1823 55.9089 75.0859 55.2474 75.0859 54.5078ZM80.4375 53.9141C80.4896 53.5391 80.4974 53.1979 80.4609 52.8906C80.4245 52.5833 80.3411 52.3203 80.2109 52.1016C80.0859 51.8828 79.9167 51.7161 79.7031 51.6016C79.4896 51.4818 79.2344 51.4219 78.9375 51.4219C78.3802 51.4219 77.9297 51.6354 77.5859 52.0625C77.2474 52.4844 77.0651 53.1016 77.0391 53.9141H80.4375ZM84.4609 45.6328H86.3516V51.0234C86.612 50.7005 86.9401 50.4427 87.3359 50.25C87.7318 50.0573 88.2214 49.9609 88.8047 49.9609C89.7161 49.9609 90.4062 50.2396 90.875 50.7969C91.349 51.3542 91.5859 52.2057 91.5859 53.3516V59H89.6953V53.4141C89.6953 52.737 89.5781 52.237 89.3438 51.9141C89.1146 51.5859 88.763 51.4219 88.2891 51.4219C87.8828 51.4219 87.5156 51.5104 87.1875 51.6875C86.8646 51.8594 86.5859 52.125 86.3516 52.4844V59H84.4609V45.6328ZM99.2812 51.5156H98.3672V50.1328H99.2812V48.3984C99.2812 47.9714 99.3411 47.5833 99.4609 47.2344C99.5807 46.8802 99.7578 46.5781 99.9922 46.3281C100.232 46.0781 100.529 45.8854 100.883 45.75C101.237 45.6094 101.648 45.5391 102.117 45.5391C102.237 45.5391 102.359 45.5443 102.484 45.5547C102.615 45.5651 102.716 45.5781 102.789 45.5938V47.1094C102.617 47.0312 102.435 46.9922 102.242 46.9922C101.893 46.9922 101.625 47.0964 101.438 47.3047C101.25 47.5078 101.156 47.7969 101.156 48.1719V50.1328H102.586V51.5156H101.156V59H99.2812V51.5156ZM103.859 54.5859C103.859 53.8411 103.956 53.1823 104.148 52.6094C104.341 52.0312 104.609 51.5469 104.953 51.1562C105.302 50.7656 105.716 50.4688 106.195 50.2656C106.674 50.0625 107.201 49.9609 107.773 49.9609C108.341 49.9609 108.865 50.0599 109.344 50.2578C109.823 50.4557 110.237 50.7474 110.586 51.1328C110.935 51.5182 111.206 51.9974 111.398 52.5703C111.596 53.138 111.695 53.7943 111.695 54.5391C111.695 55.2839 111.596 55.9453 111.398 56.5234C111.206 57.1016 110.935 57.5885 110.586 57.9844C110.242 58.375 109.828 58.6719 109.344 58.875C108.865 59.0781 108.341 59.1797 107.773 59.1797C107.201 59.1797 106.674 59.0807 106.195 58.8828C105.716 58.6797 105.302 58.3854 104.953 58C104.609 57.6094 104.341 57.1302 104.148 56.5625C103.956 55.9896 103.859 55.3307 103.859 54.5859ZM107.773 57.7109C108.07 57.7109 108.339 57.651 108.578 57.5312C108.823 57.4062 109.031 57.2161 109.203 56.9609C109.38 56.7005 109.516 56.3698 109.609 55.9688C109.708 55.5677 109.758 55.0911 109.758 54.5391C109.758 53.987 109.708 53.5156 109.609 53.125C109.516 52.7292 109.38 52.4062 109.203 52.1562C109.031 51.901 108.823 51.7161 108.578 51.6016C108.339 51.4818 108.07 51.4219 107.773 51.4219C107.482 51.4219 107.214 51.4844 106.969 51.6094C106.724 51.7292 106.513 51.9193 106.336 52.1797C106.164 52.4349 106.029 52.763 105.93 53.1641C105.836 53.5599 105.789 54.0339 105.789 54.5859C105.789 55.138 105.836 55.612 105.93 56.0078C106.029 56.3984 106.164 56.7214 106.336 56.9766C106.513 57.2266 106.724 57.4115 106.969 57.5312C107.214 57.651 107.482 57.7109 107.773 57.7109ZM113.758 50.1328H115.422L115.531 51.1562C115.818 50.7812 116.167 50.4896 116.578 50.2812C116.995 50.0677 117.456 49.9609 117.961 49.9609C118.164 49.9609 118.305 49.9792 118.383 50.0156V51.9922C118.206 51.9036 118 51.8438 117.766 51.8125C117.531 51.7812 117.289 51.7865 117.039 51.8281C116.789 51.8698 116.542 51.9557 116.297 52.0859C116.057 52.2109 115.841 52.3854 115.648 52.6094V59H113.758V50.1328ZM124.18 56.5938C124.18 55.6354 124.51 54.9062 125.172 54.4062C125.839 53.901 126.818 53.6484 128.109 53.6484H129.234V53.1641C129.234 52.8776 129.201 52.6276 129.133 52.4141C129.07 52.1953 128.966 52.013 128.82 51.8672C128.68 51.7214 128.492 51.612 128.258 51.5391C128.029 51.4609 127.747 51.4219 127.414 51.4219C127.185 51.4219 126.969 51.4401 126.766 51.4766C126.562 51.513 126.362 51.5625 126.164 51.625C125.966 51.6875 125.763 51.763 125.555 51.8516C125.352 51.9401 125.135 52.0339 124.906 52.1328V50.5781C125.109 50.4792 125.318 50.3906 125.531 50.3125C125.745 50.2344 125.971 50.1693 126.211 50.1172C126.451 50.0599 126.706 50.0182 126.977 49.9922C127.247 49.9661 127.542 49.9531 127.859 49.9531C128.958 49.9531 129.776 50.2318 130.312 50.7891C130.854 51.3464 131.125 52.1589 131.125 53.2266V56.9688C131.125 57.1615 131.125 57.3411 131.125 57.5078C131.125 57.6745 131.13 57.8385 131.141 58C131.156 58.1615 131.18 58.3255 131.211 58.4922C131.242 58.6536 131.289 58.8229 131.352 59H129.422C129.37 58.8594 129.331 58.7083 129.305 58.5469C129.279 58.3854 129.26 58.2214 129.25 58.0547C128.974 58.3984 128.638 58.6719 128.242 58.875C127.852 59.0781 127.393 59.1797 126.867 59.1797C126.461 59.1797 126.091 59.1094 125.758 58.9688C125.43 58.8281 125.148 58.6406 124.914 58.4062C124.68 58.1667 124.497 57.8906 124.367 57.5781C124.242 57.2656 124.18 56.9375 124.18 56.5938ZM126.094 56.3359C126.094 56.5078 126.12 56.6771 126.172 56.8438C126.224 57.0052 126.305 57.151 126.414 57.2812C126.529 57.4115 126.674 57.5156 126.852 57.5938C127.029 57.6719 127.242 57.7109 127.492 57.7109C127.81 57.7109 128.12 57.6458 128.422 57.5156C128.724 57.3854 128.995 57.1875 129.234 56.9219V54.9219H128.18C127.789 54.9219 127.461 54.9557 127.195 55.0234C126.93 55.0911 126.714 55.1875 126.547 55.3125C126.385 55.4375 126.268 55.5885 126.195 55.7656C126.128 55.9375 126.094 56.1276 126.094 56.3359ZM133.742 50.1328H135.406L135.516 51.1562C135.802 50.7812 136.151 50.4896 136.562 50.2812C136.979 50.0677 137.44 49.9609 137.945 49.9609C138.148 49.9609 138.289 49.9792 138.367 50.0156V51.9922C138.19 51.9036 137.984 51.8438 137.75 51.8125C137.516 51.7812 137.273 51.7865 137.023 51.8281C136.773 51.8698 136.526 51.9557 136.281 52.0859C136.042 52.2109 135.826 52.3854 135.633 52.6094V59H133.742V50.1328ZM140.43 51.5156H139.477V50.1328H140.477L140.672 47.4453H142.305V50.1328H143.945V51.5156H142.305V56.5625C142.305 56.7604 142.326 56.9245 142.367 57.0547C142.414 57.1797 142.479 57.2786 142.562 57.3516C142.651 57.4245 142.753 57.4766 142.867 57.5078C142.987 57.5391 143.122 57.5547 143.273 57.5547C143.497 57.5547 143.682 57.5339 143.828 57.4922C143.974 57.4505 144.102 57.4089 144.211 57.3672V58.9141C144.034 58.9766 143.833 59.0365 143.609 59.0938C143.391 59.151 143.115 59.1797 142.781 59.1797C142.417 59.1797 142.089 59.1276 141.797 59.0234C141.51 58.9245 141.266 58.7708 141.062 58.5625C140.859 58.3542 140.703 58.0911 140.594 57.7734C140.484 57.4557 140.43 57.0807 140.43 56.6484V51.5156ZM152.492 60.1016V63.0625H150.602V50.1328H152.273L152.375 50.8281C152.615 50.5677 152.906 50.3594 153.25 50.2031C153.599 50.0417 154.023 49.9609 154.523 49.9609C155.034 49.9609 155.503 50.0573 155.93 50.25C156.362 50.4375 156.734 50.7188 157.047 51.0938C157.359 51.4688 157.604 51.9375 157.781 52.5C157.958 53.0573 158.047 53.7057 158.047 54.4453C158.047 55.263 157.943 55.9688 157.734 56.5625C157.526 57.1562 157.245 57.6484 156.891 58.0391C156.536 58.4245 156.128 58.7109 155.664 58.8984C155.201 59.0859 154.716 59.1797 154.211 59.1797C153.852 59.1797 153.529 59.138 153.242 59.0547C152.956 58.9766 152.695 58.862 152.461 58.7109L152.492 60.1016ZM152.492 57.3516C152.695 57.487 152.911 57.5807 153.141 57.6328C153.37 57.6849 153.615 57.7109 153.875 57.7109C154.193 57.7109 154.487 57.6536 154.758 57.5391C155.029 57.4193 155.26 57.2344 155.453 56.9844C155.651 56.7292 155.805 56.401 155.914 56C156.023 55.599 156.078 55.1146 156.078 54.5469C156.078 54.0052 156.029 53.5391 155.93 53.1484C155.831 52.7526 155.69 52.4271 155.508 52.1719C155.331 51.9167 155.115 51.7292 154.859 51.6094C154.604 51.4844 154.318 51.4219 154 51.4219C153.417 51.4219 152.914 51.612 152.492 51.9922V57.3516ZM159.383 54.5078C159.383 53.7161 159.49 53.0339 159.703 52.4609C159.922 51.888 160.211 51.4167 160.57 51.0469C160.935 50.6771 161.352 50.4036 161.82 50.2266C162.294 50.0495 162.786 49.9609 163.297 49.9609C163.776 49.9609 164.219 50.0391 164.625 50.1953C165.031 50.3464 165.38 50.5755 165.672 50.8828C165.969 51.1901 166.198 51.5755 166.359 52.0391C166.526 52.4974 166.609 53.0312 166.609 53.6406C166.609 53.9115 166.589 54.1771 166.547 54.4375C166.51 54.6979 166.448 54.9479 166.359 55.1875H161.391C161.453 55.724 161.56 56.1562 161.711 56.4844C161.862 56.8125 162.047 57.0677 162.266 57.25C162.484 57.4323 162.729 57.5547 163 57.6172C163.271 57.6797 163.56 57.7109 163.867 57.7109C164.279 57.7109 164.651 57.6562 164.984 57.5469C165.318 57.4375 165.648 57.2917 165.977 57.1094V58.6094C165.57 58.8177 165.161 58.9635 164.75 59.0469C164.344 59.1354 163.938 59.1797 163.531 59.1797C162.891 59.1797 162.312 59.0755 161.797 58.8672C161.286 58.6589 160.852 58.3568 160.492 57.9609C160.138 57.5599 159.865 57.0703 159.672 56.4922C159.479 55.9089 159.383 55.2474 159.383 54.5078ZM164.734 53.9141C164.786 53.5391 164.794 53.1979 164.758 52.8906C164.721 52.5833 164.638 52.3203 164.508 52.1016C164.383 51.8828 164.214 51.7161 164 51.6016C163.786 51.4818 163.531 51.4219 163.234 51.4219C162.677 51.4219 162.227 51.6354 161.883 52.0625C161.544 52.4844 161.362 53.1016 161.336 53.9141H164.734ZM168.156 54.5859C168.156 53.8411 168.253 53.1823 168.445 52.6094C168.638 52.0312 168.906 51.5469 169.25 51.1562C169.599 50.7656 170.013 50.4688 170.492 50.2656C170.971 50.0625 171.497 49.9609 172.07 49.9609C172.638 49.9609 173.161 50.0599 173.641 50.2578C174.12 50.4557 174.534 50.7474 174.883 51.1328C175.232 51.5182 175.503 51.9974 175.695 52.5703C175.893 53.138 175.992 53.7943 175.992 54.5391C175.992 55.2839 175.893 55.9453 175.695 56.5234C175.503 57.1016 175.232 57.5885 174.883 57.9844C174.539 58.375 174.125 58.6719 173.641 58.875C173.161 59.0781 172.638 59.1797 172.07 59.1797C171.497 59.1797 170.971 59.0807 170.492 58.8828C170.013 58.6797 169.599 58.3854 169.25 58C168.906 57.6094 168.638 57.1302 168.445 56.5625C168.253 55.9896 168.156 55.3307 168.156 54.5859ZM172.07 57.7109C172.367 57.7109 172.635 57.651 172.875 57.5312C173.12 57.4062 173.328 57.2161 173.5 56.9609C173.677 56.7005 173.812 56.3698 173.906 55.9688C174.005 55.5677 174.055 55.0911 174.055 54.5391C174.055 53.987 174.005 53.5156 173.906 53.125C173.812 52.7292 173.677 52.4062 173.5 52.1562C173.328 51.901 173.12 51.7161 172.875 51.6016C172.635 51.4818 172.367 51.4219 172.07 51.4219C171.779 51.4219 171.51 51.4844 171.266 51.6094C171.021 51.7292 170.81 51.9193 170.633 52.1797C170.461 52.4349 170.326 52.763 170.227 53.1641C170.133 53.5599 170.086 54.0339 170.086 54.5859C170.086 55.138 170.133 55.612 170.227 56.0078C170.326 56.3984 170.461 56.7214 170.633 56.9766C170.81 57.2266 171.021 57.4115 171.266 57.5312C171.51 57.651 171.779 57.7109 172.07 57.7109ZM179.711 60.1016V63.0625H177.82V50.1328H179.492L179.594 50.8281C179.833 50.5677 180.125 50.3594 180.469 50.2031C180.818 50.0417 181.242 49.9609 181.742 49.9609C182.253 49.9609 182.721 50.0573 183.148 50.25C183.581 50.4375 183.953 50.7188 184.266 51.0938C184.578 51.4688 184.823 51.9375 185 52.5C185.177 53.0573 185.266 53.7057 185.266 54.4453C185.266 55.263 185.161 55.9688 184.953 56.5625C184.745 57.1562 184.464 57.6484 184.109 58.0391C183.755 58.4245 183.346 58.7109 182.883 58.8984C182.419 59.0859 181.935 59.1797 181.43 59.1797C181.07 59.1797 180.747 59.138 180.461 59.0547C180.174 58.9766 179.914 58.862 179.68 58.7109L179.711 60.1016ZM179.711 57.3516C179.914 57.487 180.13 57.5807 180.359 57.6328C180.589 57.6849 180.833 57.7109 181.094 57.7109C181.411 57.7109 181.706 57.6536 181.977 57.5391C182.247 57.4193 182.479 57.2344 182.672 56.9844C182.87 56.7292 183.023 56.401 183.133 56C183.242 55.599 183.297 55.1146 183.297 54.5469C183.297 54.0052 183.247 53.5391 183.148 53.1484C183.049 52.7526 182.909 52.4271 182.727 52.1719C182.549 51.9167 182.333 51.7292 182.078 51.6094C181.823 51.4844 181.536 51.4219 181.219 51.4219C180.635 51.4219 180.133 51.612 179.711 51.9922V57.3516ZM187.266 45.6328H189.133V59H187.266V45.6328ZM191.133 54.5078C191.133 53.7161 191.24 53.0339 191.453 52.4609C191.672 51.888 191.961 51.4167 192.32 51.0469C192.685 50.6771 193.102 50.4036 193.57 50.2266C194.044 50.0495 194.536 49.9609 195.047 49.9609C195.526 49.9609 195.969 50.0391 196.375 50.1953C196.781 50.3464 197.13 50.5755 197.422 50.8828C197.719 51.1901 197.948 51.5755 198.109 52.0391C198.276 52.4974 198.359 53.0312 198.359 53.6406C198.359 53.9115 198.339 54.1771 198.297 54.4375C198.26 54.6979 198.198 54.9479 198.109 55.1875H193.141C193.203 55.724 193.31 56.1562 193.461 56.4844C193.612 56.8125 193.797 57.0677 194.016 57.25C194.234 57.4323 194.479 57.5547 194.75 57.6172C195.021 57.6797 195.31 57.7109 195.617 57.7109C196.029 57.7109 196.401 57.6562 196.734 57.5469C197.068 57.4375 197.398 57.2917 197.727 57.1094V58.6094C197.32 58.8177 196.911 58.9635 196.5 59.0469C196.094 59.1354 195.688 59.1797 195.281 59.1797C194.641 59.1797 194.062 59.0755 193.547 58.8672C193.036 58.6589 192.602 58.3568 192.242 57.9609C191.888 57.5599 191.615 57.0703 191.422 56.4922C191.229 55.9089 191.133 55.2474 191.133 54.5078ZM196.484 53.9141C196.536 53.5391 196.544 53.1979 196.508 52.8906C196.471 52.5833 196.388 52.3203 196.258 52.1016C196.133 51.8828 195.964 51.7161 195.75 51.6016C195.536 51.4818 195.281 51.4219 194.984 51.4219C194.427 51.4219 193.977 51.6354 193.633 52.0625C193.294 52.4844 193.112 53.1016 193.086 53.9141H196.484Z"
            fill="black"
    />
</svg>