<svg width="153" height="37" viewBox="0 0 153 37" fill="none" xmlns="http://www.w3.org/2000/svg">
    <path d="M104.907 18.4942H98.9682C98.8597 17.7243 98.6383 17.0405 98.3038 16.4427C97.9694 15.8358 97.54 15.3195 97.0158 14.8938C96.4915 14.4681 95.8859 14.1421 95.1989 13.9156C94.521 13.6892 93.7843 13.576 92.9888 13.576C91.5516 13.576 90.2997 13.9337 89.2331 14.6493C88.1664 15.3558 87.3393 16.3883 86.7518 17.7469C86.1643 19.0965 85.8705 20.7359 85.8705 22.6652C85.8705 24.6488 86.1643 26.3154 86.7518 27.6649C87.3484 29.0145 88.18 30.0335 89.2466 30.7219C90.3132 31.4102 91.5471 31.7544 92.9481 31.7544C93.7345 31.7544 94.4622 31.6503 95.1311 31.4419C95.809 31.2336 96.4101 30.9302 96.9344 30.5316C97.4587 30.1241 97.5299 30.1048 98.2107 29.2072C98.6227 28.6568 99.1892 27.4698 99.1892 27.4698L103.792 30.7674C103.034 31.9906 102.191 30.6902 103.754 30.7898C103.149 31.9673 102.331 33.0225 101.3 33.9554C100.279 34.8793 99.0586 35.6129 97.6395 36.1564C96.2293 36.6908 94.6339 36.958 92.8532 36.958C90.3765 36.958 88.1619 36.3964 86.2095 35.2733C84.266 34.1501 82.7294 32.5243 81.5995 30.3958C80.4786 28.2673 79.9182 25.6904 79.9182 22.6652C79.9182 19.6309 80.4877 17.0495 81.6266 14.921C82.7655 12.7925 84.3112 11.1712 86.2637 10.0571C88.2161 8.93397 90.4127 8.37241 92.8532 8.37241C94.4622 8.37241 95.9537 8.59884 97.3276 9.05172C98.7106 9.5046 99.9354 10.1658 101.002 11.0353C102.069 11.8958 102.936 12.951 103.605 14.2009C104.283 15.4509 104.717 16.882 104.907 18.4942Z" fill="black"/>
    <path d="M98.9804 18.4638H104.919C105.028 19.2337 105.249 19.9175 105.583 20.5153C105.918 21.1222 106.347 21.6384 106.872 22.0641C107.396 22.4898 108.001 22.8159 108.688 23.0423C109.366 23.2688 110.103 23.382 110.898 23.382C112.336 23.382 113.588 23.0242 114.654 22.3087C115.721 21.6022 116.548 20.5696 117.135 19.211C117.723 17.8614 118.017 16.222 118.017 14.2928C118.017 12.3092 117.723 10.6426 117.135 9.29302C116.539 7.94345 115.707 6.92448 114.641 6.23611C113.574 5.54773 112.34 5.20355 110.939 5.20355C110.153 5.20355 109.425 5.30771 108.756 5.51603C108.078 5.72436 107.477 6.02778 106.953 6.42631C106.429 6.8339 106.357 6.85315 105.677 7.75074C105.265 8.3012 104.698 9.48812 104.698 9.48812L100.095 6.19053C100.853 4.96733 101.697 6.26781 100.133 6.16817C100.738 4.99069 101.557 3.93549 102.587 3.00257C103.608 2.0787 104.829 1.34504 106.248 0.801589C107.658 0.267195 109.253 -1.55991e-07 111.034 0C113.511 2.16963e-07 115.725 0.561567 117.678 1.6847C119.621 2.80783 121.158 4.43366 122.288 6.56218C123.409 8.6907 123.969 11.2676 123.969 14.2928C123.969 17.327 123.4 19.9084 122.261 22.037C121.122 24.1655 119.576 25.7868 117.624 26.9009C115.671 28.024 113.475 28.5856 111.034 28.5856C109.425 28.5856 107.934 28.3591 106.56 27.9062C105.177 27.4534 103.952 26.7922 102.885 25.9226C101.819 25.0622 100.951 24.007 100.282 22.757C99.6041 21.5071 99.1702 20.076 98.9804 18.4638Z" fill="black"/>
    <path d="M15.9586 16.7836C15.8501 15.6876 15.3846 14.8362 14.5621 14.2294C13.7395 13.6225 12.6232 13.3191 11.2131 13.3191C10.2549 13.3191 9.44591 13.455 8.78605 13.7267C8.12619 13.9894 7.62 14.3562 7.26747 14.8272C6.92399 15.2982 6.75224 15.8326 6.75224 16.4304C6.73417 16.9285 6.83812 17.3633 7.06409 17.7346C7.29911 18.106 7.62 18.4275 8.02676 18.6993C8.43353 18.9619 8.90356 19.1929 9.43687 19.3922C9.97018 19.5824 10.5396 19.7454 11.1453 19.8813L13.6401 20.4791C14.8513 20.7508 15.9631 21.1131 16.9755 21.566C17.9879 22.0188 18.8647 22.5759 19.6059 23.2371C20.3471 23.8983 20.9211 24.6772 21.3279 25.5739C21.7437 26.4706 21.9561 27.4987 21.9651 28.658C21.9561 30.3608 21.5222 31.8372 20.6635 33.0871C19.8138 34.328 18.5845 35.2927 16.9755 35.981C15.3756 36.6603 13.4457 37 11.1859 37C8.94424 37 6.99178 36.6558 5.32858 35.9674C3.67441 35.2791 2.38182 34.2601 1.45078 32.9105C0.52879 31.5519 0.0451958 29.8717 0 27.87H5.6811C5.74438 28.8029 6.01103 29.5819 6.48107 30.2069C6.96014 30.8228 7.5974 31.2892 8.39285 31.6062C9.19733 31.9142 10.1058 32.0682 11.1182 32.0682C12.1125 32.0682 12.9757 31.9233 13.7079 31.6334C14.4491 31.3436 15.0231 30.9405 15.4298 30.4242C15.8366 29.908 16.04 29.3147 16.04 28.6444C16.04 28.0195 15.8547 27.4941 15.4841 27.0684C15.1225 26.6427 14.5892 26.2804 13.8841 25.9815C13.1881 25.6826 12.3339 25.4109 11.3215 25.1663L8.29794 24.4055C5.9568 23.8349 4.10829 22.9427 2.75242 21.729C1.39655 20.5153 0.723132 18.8804 0.732171 16.8244C0.723132 15.1397 1.17057 13.6678 2.07448 12.4088C2.98744 11.1498 4.23936 10.1671 5.83025 9.46059C7.42114 8.7541 9.22897 8.40086 11.2537 8.40086C13.3147 8.40086 15.1135 8.7541 16.6501 9.46059C18.1958 10.1671 19.398 11.1498 20.2567 12.4088C21.1154 13.6678 21.5584 15.1261 21.5855 16.7836H15.9586Z" fill="black"/>
    <path d="M24.2871 8.78127H30.863L37.195 20.7644H37.4661L43.7981 8.78127H50.374L40.2457 26.7695V36.606H34.4154V26.7695L24.2871 8.78127Z" fill="black"/>
    <path d="M76.8068 8.78127V36.606H71.7358L59.655 19.0933H59.4516V36.606H53.5807V8.78127H58.733L70.7189 26.2804H70.963V8.78127H76.8068Z" fill="black"/>
    <path d="M124.876 27.0412V6.17271H130.476V9.81383H130.693C131.072 8.5186 131.709 7.54039 132.604 6.87919C133.499 6.20894 134.53 5.87381 135.696 5.87381C135.985 5.87381 136.297 5.89192 136.631 5.92815C136.966 5.96438 137.259 6.0142 137.513 6.0776V11.2132C137.241 11.1317 136.866 11.0592 136.387 10.9958C135.908 10.9324 135.47 10.9007 135.072 10.9007C134.222 10.9007 133.463 11.0864 132.794 11.4578C132.134 11.8201 131.61 12.3273 131.221 12.9794C130.842 13.6316 130.652 14.3834 130.652 15.2348V27.0412H124.876Z" fill="black"/>
    <path d="M152.62 6.17271V10.5203H140.079V6.17271H152.62ZM142.926 1.17295H148.702V20.6285C148.702 21.1629 148.783 21.5796 148.946 21.8785C149.109 22.1683 149.335 22.3721 149.624 22.4898C149.922 22.6076 150.266 22.6665 150.654 22.6665C150.926 22.6665 151.197 22.6438 151.468 22.5985C151.739 22.5442 151.947 22.5034 152.092 22.4763L153 26.7831C152.711 26.8737 152.304 26.9778 151.78 27.0956C151.255 27.2224 150.618 27.2994 149.868 27.3266C148.476 27.3809 147.256 27.1952 146.207 26.7695C145.168 26.3438 144.359 25.6826 143.78 24.7859C143.202 23.8892 142.917 22.757 142.926 21.3894V1.17295Z" fill="black"/>
    <path d="M111.233 20.1043C109.974 20.1043 108.921 19.6726 108.076 18.8091C107.231 17.929 106.792 16.8662 106.759 15.6208C106.742 14.3754 107.181 13.3376 108.076 12.5073C108.971 11.6604 110.023 11.237 111.233 11.237C112.459 11.237 113.52 11.6687 114.415 12.5322C115.31 13.3957 115.741 14.4252 115.707 15.6208C115.691 16.4511 115.475 17.2067 115.061 17.8875C114.663 18.5683 114.125 19.108 113.445 19.5065C112.783 19.9051 112.045 20.1043 111.233 20.1043Z" fill="black"/>
</svg>
