<svg width="239" height="298" viewBox="0 0 239 298" fill="none" xmlns="http://www.w3.org/2000/svg">
    <path d="M32.3305 179.25L118.5 30L204.67 179.25H32.3305Z" fill="#D9D9D9" stroke="black" stroke-width="6"/>
    <path d="M2.69531 34.2578C3.82812 35.0391 4.91536 35.5859 5.95703 35.8984C7.01172 36.2109 8.04036 36.3672 9.04297 36.3672C9.92839 36.3672 10.6771 36.263 11.2891 36.0547C11.901 35.8333 12.3893 35.5534 12.7539 35.2148C13.1315 34.8633 13.3984 34.4727 13.5547 34.043C13.724 33.6003 13.8086 33.1576 13.8086 32.7148C13.8086 31.9987 13.6458 31.3477 13.3203 30.7617C12.9948 30.1758 12.5651 29.6159 12.0312 29.082C11.5104 28.5482 10.9115 28.0339 10.2344 27.5391C9.57031 27.0443 8.88672 26.5299 8.18359 25.9961C7.48047 25.4622 6.79036 24.9023 6.11328 24.3164C5.4362 23.7174 4.83073 23.0599 4.29688 22.3438C3.77604 21.6146 3.35286 20.8138 3.02734 19.9414C2.71484 19.056 2.55859 18.0664 2.55859 16.9727C2.55859 15.7227 2.77344 14.6029 3.20312 13.6133C3.64583 12.6107 4.2513 11.7643 5.01953 11.0742C5.78776 10.3841 6.69922 9.85677 7.75391 9.49219C8.80859 9.11458 9.95443 8.92578 11.1914 8.92578C12.181 8.92578 13.1706 9.03646 14.1602 9.25781C15.1497 9.46615 16.0091 9.7526 16.7383 10.1172L16.7188 14.6484C15.7812 14.0365 14.8958 13.6003 14.0625 13.3398C13.2292 13.0794 12.4023 12.9492 11.582 12.9492C10.8529 12.9492 10.2148 13.0469 9.66797 13.2422C9.13411 13.4375 8.6849 13.7044 8.32031 14.043C7.96875 14.3815 7.70182 14.7786 7.51953 15.2344C7.35026 15.6771 7.26562 16.1589 7.26562 16.6797C7.26562 17.4349 7.42188 18.1185 7.73438 18.7305C8.0599 19.3294 8.48307 19.8958 9.00391 20.4297C9.53776 20.9635 10.1432 21.4779 10.8203 21.9727C11.4974 22.4544 12.181 22.9557 12.8711 23.4766C13.5742 23.9974 14.2643 24.5443 14.9414 25.1172C15.6185 25.6901 16.2174 26.3281 16.7383 27.0312C17.2721 27.7214 17.6953 28.4961 18.0078 29.3555C18.3333 30.2148 18.4961 31.1849 18.4961 32.2656C18.4961 33.4766 18.2812 34.5833 17.8516 35.5859C17.4349 36.5885 16.8294 37.4479 16.0352 38.1641C15.2539 38.8802 14.2969 39.4401 13.1641 39.8438C12.0443 40.2344 10.7878 40.4297 9.39453 40.4297C8.82161 40.4297 8.22917 40.3906 7.61719 40.3125C7.00521 40.2474 6.39974 40.1497 5.80078 40.0195C5.21484 39.8893 4.64844 39.7331 4.10156 39.5508C3.56771 39.3555 3.09245 39.1341 2.67578 38.8867L2.69531 34.2578Z" fill="black"/>
    <line x1="38.7678" y1="48.1258" x2="116.768" y2="126.126" stroke="black" stroke-width="5"/>
    <line x1="194.768" y1="51.6613" x2="116.768" y2="129.661" stroke="black" stroke-width="5"/>
    <line x1="117.5" y1="234" x2="117.5" y2="126" stroke="black" stroke-width="5"/>
    <path d="M213.18 9.31641H217.203L228.121 28.7695L229.449 32.3242H229.684L229.156 26.2891V9.31641H233.941V40H229.957L218.805 20.6055L217.691 17.9492H217.457L217.965 25.0977V40H213.18V9.31641Z" fill="black"/>
    <path d="M120.785 288.43C118.936 288.43 117.243 288.111 115.707 287.473C114.171 286.835 112.849 285.865 111.742 284.562C110.648 283.26 109.796 281.613 109.184 279.621C108.572 277.629 108.266 275.279 108.266 272.57C108.266 269.875 108.552 267.544 109.125 265.578C109.698 263.599 110.505 261.965 111.547 260.676C112.589 259.387 113.839 258.436 115.297 257.824C116.755 257.199 118.376 256.887 120.16 256.887C120.811 256.887 121.456 256.926 122.094 257.004C122.732 257.069 123.331 257.167 123.891 257.297C124.464 257.414 124.978 257.564 125.434 257.746C125.902 257.915 126.286 258.104 126.586 258.312V263.078C125.766 262.336 124.848 261.796 123.832 261.457C122.829 261.105 121.781 260.93 120.688 260.93C119.568 260.93 118.539 261.151 117.602 261.594C116.677 262.023 115.883 262.707 115.219 263.645C114.555 264.582 114.04 265.786 113.676 267.258C113.311 268.716 113.129 270.474 113.129 272.531C113.129 274.602 113.318 276.385 113.695 277.883C114.073 279.38 114.62 280.611 115.336 281.574C116.052 282.538 116.918 283.247 117.934 283.703C118.949 284.159 120.095 284.387 121.371 284.387C122.309 284.387 123.246 284.257 124.184 283.996C125.121 283.723 125.961 283.26 126.703 282.609V286.984C126.065 287.401 125.245 287.746 124.242 288.02C123.24 288.293 122.087 288.43 120.785 288.43Z" fill="black"/>
    <path d="M59.043 201.316C59.7721 201.29 60.4362 201.271 61.0352 201.258C61.6341 201.232 62.2135 201.219 62.7734 201.219C63.3464 201.206 63.9128 201.199 64.4727 201.199C65.0326 201.199 65.638 201.199 66.2891 201.199C68.4505 201.199 70.2799 201.434 71.7773 201.902C73.2878 202.371 74.5117 203.022 75.4492 203.855C76.3867 204.676 77.0638 205.652 77.4805 206.785C77.9102 207.918 78.125 209.155 78.125 210.496C78.125 212.553 77.6302 214.35 76.6406 215.887C75.6641 217.41 74.1406 218.549 72.0703 219.305L78.7109 231.98H73.4375L67.4023 220.203C67.168 220.216 66.9271 220.229 66.6797 220.242C66.4323 220.242 66.1784 220.242 65.918 220.242C65.2409 220.242 64.5508 220.223 63.8477 220.184V232H59.043V201.316ZM63.8477 216.082C64.3424 216.147 64.8177 216.199 65.2734 216.238C65.7292 216.264 66.1654 216.277 66.582 216.277C67.8581 216.277 68.9323 216.134 69.8047 215.848C70.6771 215.561 71.3802 215.171 71.9141 214.676C72.4479 214.168 72.832 213.576 73.0664 212.898C73.3008 212.221 73.418 211.499 73.418 210.73C73.418 209.91 73.2878 209.161 73.0273 208.484C72.7669 207.794 72.3438 207.202 71.7578 206.707C71.1719 206.212 70.4102 205.828 69.4727 205.555C68.5482 205.268 67.4154 205.118 66.0742 205.105C65.7227 205.105 65.3646 205.112 65 205.125C64.6354 205.138 64.2513 205.158 63.8477 205.184V216.082Z" fill="black"/>
    <path d="M170.555 205.262H163.289V201.316H182.586V205.262H175.34V232H170.555V205.262Z" fill="black"/>
</svg>
